<svg width="87" height="22" viewBox="0 0 87 22" fill="none" xmlns="http://www.w3.org/2000/svg">
<path d="M0.421875 21V18.5391L10.3477 4.59375H0.394531V1.20312H15.4883V3.66406L5.58984 17.6094H15.5156V21H0.421875ZM22.007 1.20312V21H17.9055V1.20312H22.007ZM24.643 21V1.20312H32.4086C36.9066 1.20312 39.4906 3.97852 39.4906 7.875C39.4906 11.8262 36.8656 14.5469 32.2992 14.5469H28.7445V21H24.643ZM28.7445 11.2383H31.643C34.0766 11.2383 35.266 9.87109 35.2523 7.875C35.266 5.90625 34.0766 4.58008 31.643 4.56641H28.7445V11.2383Z" fill="#495CF8"/>
<path d="M41.3063 21V6.15234H45.3531V21H41.3063ZM41.1148 2.16016C41.1148 1.01172 42.1129 0.0957031 43.3297 0.0820312C44.5328 0.0957031 45.5309 1.01172 45.5172 2.16016C45.5309 3.28125 44.5328 4.21094 43.3297 4.21094C42.1129 4.21094 41.1148 3.28125 41.1148 2.16016ZM51.8445 12.4141V21H47.7977V6.15234H51.6531V8.75H51.8172C52.4871 7.04102 54.073 5.96094 56.2742 5.96094C59.3777 5.96094 61.4012 8.08008 61.3875 11.5391V21H57.368V12.25C57.3543 10.418 56.3699 9.32422 54.6883 9.32422C53.0066 9.32422 51.8445 10.459 51.8445 12.4141ZM71.7344 6.15234V9.1875H68.7812V21H64.7344V9.1875H62.6289V6.15234H64.7344V5.03125C64.7344 1.90039 66.6211 0.273438 69.6016 0.273438C70.5176 0.273438 71.2969 0.355469 72.0078 0.519531V3.58203C71.4199 3.52734 70.9961 3.51367 70.7773 3.5C69.4785 3.51367 68.7812 4.00586 68.7812 5.25V6.15234H71.7344ZM79.5383 21.3008C75.0539 21.2871 72.2512 18.2109 72.2648 13.6172C72.2512 9.03711 75.0539 5.96094 79.5383 5.96094C84.0363 5.96094 86.8254 9.03711 86.8391 13.6172C86.8254 18.2109 84.0363 21.2871 79.5383 21.3008ZM76.3664 13.6172C76.3664 16.2148 77.4465 18.1426 79.5656 18.1562C81.6301 18.1426 82.7238 16.2148 82.7102 13.6172C82.7238 11.0059 81.6301 9.05078 79.5656 9.05078C77.4465 9.05078 76.3664 11.0059 76.3664 13.6172Z" fill="#111111"/>
</svg>
