<svg width="15" height="14" viewBox="0 0 15 14" fill="none" xmlns="http://www.w3.org/2000/svg">
<path d="M7.46191 14C5.50775 14 3.8525 13.3222 2.49616 11.9665C1.14 10.6108 0.461914 8.95633 0.461914 7.003C0.461914 5.04967 1.14 3.39417 2.49616 2.0365C3.8525 0.678834 5.50775 0 7.46191 0C8.65025 0 9.76308 0.282333 10.8004 0.847C11.8376 1.41183 12.6734 2.2 13.3079 3.2115V0H14.3079V5.23075H9.07716V4.23075H12.7772C12.2567 3.23325 11.5243 2.44542 10.5802 1.86725C9.63583 1.28908 8.59641 1 7.46191 1C5.79525 1 4.37858 1.58333 3.21191 2.75C2.04525 3.91667 1.46191 5.33333 1.46191 7C1.46191 8.66667 2.04525 10.0833 3.21191 11.25C4.37858 12.4167 5.79525 13 7.46191 13C8.74525 13 9.90358 12.6333 10.9369 11.9C11.9702 11.1667 12.6952 10.2 13.1119 9H14.1734C13.7324 10.4975 12.8946 11.7052 11.6599 12.623C10.4252 13.541 9.02591 14 7.46191 14Z" fill="#767676"/>
</svg>
